<svg id="Outline" height="512" viewBox="0 0 512 512" width="512" xmlns="http://www.w3.org/2000/svg"><path d="m486.215 391.83-62.555-143.876a36.7 36.7 0 0 1 17.246-47.463l18.672-9.336a8 8 0 0 0 4.422-7.155v-56a8 8 0 0 0 -8-8h-32v-16h-16v16h-352v-16h-16v16h-16a8 8 0 0 0 -8 8v64a32.036 32.036 0 0 0 32 32h134.938l-3.138 25.1a34.6 34.6 0 0 0 34.336 38.9h94.048l52.388 130.971a8 8 0 0 0 7.428 5.029h97.122a23 23 0 0 0 21.093-32.17zm-142.215-255.83v24h16v-24h16v24h16v-24h16v24h16v-24h24v40h-416v-40zm-312 56h96v16h-80a16.019 16.019 0 0 1 -16-16zm182.136 80a18.6 18.6 0 0 1 -18.459-20.911l3.385-27.089h58.756c.319 0 .632.027.95.036-5.634 13.362-15.126 21.475-28.338 24.119l3.14 15.69c19.07-3.817 33.332-16.433 40.856-35.872a36.422 36.422 0 0 1 17.355 19.021l10 25.006zm256.841 132.838a6.925 6.925 0 0 1 -5.855 3.162h-91.706l-66.779-166.947a52.329 52.329 0 0 0 -48.819-33.053h-113.818v-16h168v16h16v-16h96.633a52.646 52.646 0 0 0 -15.646 62.334l62.555 143.876a6.924 6.924 0 0 1 -.565 6.628z"/><path d="m424 376h16v16h-16z"/></svg>